<svg xmlns="http://www.w3.org/2000/svg" width="25" height="27" fill="#ff7e00"  fill-rule="evenodd" xmlns:v="https://vecta.io/nano"><path d="M6.366 8.198C7.642 6.64 9.63 5.523 12.381 5.523c2.76 0 4.671 1.146 5.876 2.727 1.183 1.552 1.649 3.471 1.649 5.003 0 2.203-1.054 3.713-2.121 5.242l-.394.569c-.874 1.279-1.104 2.98-1.104 3.64 0 .433-.351.784-.784.784H8.919c-.433 0-.784-.351-.784-.784 0-1.099-.24-2.112-.933-3.506-.078-.156-.235-.379-.499-.747l-.843-1.263c-.591-.991-1.166-2.292-1.23-3.901A7.76 7.76 0 0 1 6.365 8.2zm1.117 1.027C6.48 10.45 6.06 11.989 6.108 13.218c.049 1.238.491 2.271 1.003 3.13a16.24 16.24 0 0 0 .772 1.153l.041.058.587.906c.544 1.095.866 2.041 1.011 2.992.04.26.258.461.521.461h4.364a.53.53 0 0 0 .517-.448c.165-.983.532-2.248 1.268-3.327l.392-.569c1.094-1.581 1.842-2.663 1.842-4.323 0-1.235-.383-2.788-1.32-4.017-.915-1.2-2.397-2.144-4.726-2.144-2.339 0-3.913.933-4.898 2.135zM14.1 25.998a1.02 1.02 0 0 1-.815.408h-2.037a1.02 1.02 0 0 1-.815-.408 1.02 1.02 0 0 1 .815-1.63h2.037a1.02 1.02 0 0 1 .815 1.63zM8.326 3.261c-.274.112-.59-.035-.691-.321L6.934.942a.51.51 0 0 1 .284-.648c.274-.112.59.035.691.321l.702 1.998a.51.51 0 0 1-.284.648z"/><path d="M7.669.695C7.618.549 7.457.474 7.317.531c-.128.052-.192.197-.145.331l.702 1.998c.051.146.212.221.352.164.128-.052.192-.197.145-.331L7.669.695zM7.118.056c.408-.166.88.053 1.029.478l.702 1.998c.137.39-.048.814-.423.966-.408.166-.88-.053-1.029-.478l-.702-1.998c-.137-.39.048-.814.423-.966zm9.5.312c.246.115.358.403.255.66l-.787 1.962c-.112.28-.435.412-.705.287-.246-.115-.358-.403-.255-.66l.787-1.962c.112-.28.435-.412.705-.287z"/><path d="M16.508.6c-.137-.064-.302.003-.359.146l-.787 1.962c-.052.131.005.278.13.336.137.064.302-.003.359-.146l.787-1.962c.052-.131-.005-.278-.13-.336zm-.83-.037c.168-.418.649-.614 1.05-.427.367.171.534.601.381.984l-.787 1.962c-.167.418-.649.614-1.05.427-.367-.171-.534-.601-.38-.984l.787-1.962zM.795 6.967a.54.54 0 0 1 .761-.19l1.642 1.061c.238.154.316.465.178.713a.54.54 0 0 1-.761.19L.973 7.679c-.238-.154-.316-.465-.178-.713z"/><path d="M.573 6.843a.79.79 0 0 1 1.122-.28l1.642 1.061a.792.792 0 1 1-.859 1.33L.835 7.893a.79.79 0 0 1-.262-1.051zm.845.148c-.137-.089-.321-.043-.4.1-.072.13-.032.294.093.375l1.642 1.061c.137.089.321.043.4-.1.072-.13.032-.294-.094-.375L1.418 6.991zm22.298-.024c.14.246.065.558-.172.714l-1.441.949c-.259.171-.609.087-.762-.183-.14-.246-.064-.558.172-.714l1.441-.949c.259-.171.609-.087.762.183z"/><path d="M23.494 7.093c-.081-.142-.264-.186-.401-.096l-1.441.949c-.124.082-.164.246-.09.375.081.142.264.186.401.096l1.441-.949c.124-.082.164-.246.09-.375zm-.681-.522a.79.79 0 0 1 .87 1.323l-1.441.949a.79.79 0 0 1-.87-1.323l1.441-.949z"/></svg>