<svg xmlns="http://www.w3.org/2000/svg" width="29" height="18" fill="#ff7e00"  fill-rule="evenodd" xmlns:v="https://vecta.io/nano"><path d="M19.569 5.763c.556-.677 1.42-1.198 2.586-1.198s2.018.523 2.565 1.2c.536.663.788 1.48.788 2.12v.018c0 .351 0 .802-.152 1.282-.159.5-.472 1.005-1.056 1.5l-.306.282a1.12 1.12 0 0 0-.146.179 4.48 4.48 0 0 0 .493.242l.155.069.817.379c.704.348 1.537.839 2.053 1.537.801 1.081 1.285 2.498 1.285 3.498 0 .246-.199.445-.445.445H15.98c-.246 0-.445-.199-.445-.445 0-.663.255-2.22 1.226-3.502 1.065-1.406 2.412-1.812 3.235-2.06l.53-.18.018-.009c-.031-.089-.149-.252-.379-.403-.514-.339-.865-.75-1.081-1.242-.211-.48-.281-1.011-.282-1.578-.033-.658.227-1.477.767-2.135zm.697.561c-.416.506-.59 1.118-.567 1.536l.001.013v.013c0 .507.063.906.208 1.236.141.321.372.603.756.856.325.214.622.522.736.874.06.184.076.405-.017.621s-.272.37-.481.466a6.61 6.61 0 0 1-.799.282c-.817.251-1.757.54-2.624 1.684-.337.445-.573.933-.735 1.392-.205.582.273 1.132.89 1.132h8.897c.623 0 1.095-.558.868-1.138-.186-.475-.442-.961-.76-1.389-.382-.515-1.046-.928-1.731-1.267l-.778-.361-.163-.073c-.258-.116-.531-.241-.696-.366s-.3-.3-.338-.526a.87.87 0 0 1 .107-.557c.148-.276.429-.532.674-.74.466-.395.678-.762.782-1.09.108-.341.111-.669.111-1.034 0-.438-.183-1.059-.591-1.564-.396-.491-.998-.866-1.863-.866s-1.485.378-1.889.869zM4.289 5.731c.556-.677 1.42-1.198 2.586-1.198s2.018.523 2.565 1.2c.536.663.788 1.48.788 2.12v.018c0 .351 0 .802-.152 1.282-.159.5-.472 1.005-1.056 1.5l-.307.282a1.08 1.08 0 0 0-.146.179 4.48 4.48 0 0 0 .493.242l.155.069.817.379c.704.348 1.537.839 2.053 1.537.801 1.081 1.285 2.498 1.285 3.498 0 .246-.199.445-.445.445H.699c-.246 0-.445-.199-.445-.445 0-.663.256-2.22 1.226-3.502 1.065-1.407 2.412-1.812 3.235-2.06l.53-.18.018-.009c-.031-.09-.149-.252-.379-.403-.514-.339-.865-.75-1.081-1.242-.211-.48-.281-1.011-.282-1.578-.033-.658.227-1.477.767-2.135zm.697.561c-.416.506-.591 1.118-.567 1.536l.001.013v.013c0 .507.063.906.208 1.236.141.321.372.603.756.856.325.214.622.522.736.874.06.184.076.405-.017.621s-.272.37-.481.466a6.61 6.61 0 0 1-.799.282c-.817.251-1.757.54-2.624 1.684-.337.445-.573.933-.735 1.392-.205.582.273 1.132.89 1.132h8.897c.623 0 1.095-.558.868-1.138-.186-.475-.442-.96-.76-1.389-.382-.515-1.046-.928-1.731-1.267l-.778-.361-.163-.073c-.258-.116-.531-.241-.696-.366s-.3-.3-.338-.526a.87.87 0 0 1 .107-.557c.148-.276.429-.532.674-.74.466-.395.678-.762.783-1.09.108-.341.111-.669.111-1.034 0-.438-.183-1.059-.591-1.564-.396-.491-.998-.866-1.863-.866s-1.485.378-1.889.869zM14.515.255c-1.166 0-2.03.521-2.586 1.198-.54.657-.801 1.477-.767 2.135.001.567.071 1.098.282 1.578.216.492.567.902 1.082 1.242.23.152.348.314.379.403l-.018.009c-.13.059-.311.114-.53.18-.383.115-.878.264-1.405.532v1.016c.52-.333 1.037-.491 1.512-.637l.799-.282a.92.92 0 0 0 .481-.466c.093-.216.077-.436.017-.621-.114-.352-.412-.659-.736-.874-.384-.254-.615-.535-.756-.856-.145-.329-.208-.729-.208-1.236v-.013l-.001-.013c-.024-.418.151-1.03.567-1.536.404-.492 1.022-.869 1.889-.869s1.467.376 1.863.866c.408.505.591 1.126.591 1.564 0 .365-.003.693-.111 1.034-.104.329-.316.695-.782 1.09-.246.208-.526.464-.674.74a.87.87 0 0 0-.107.557c.038.226.171.4.338.526s.439.25.696.366l.163.073.778.361.812.455V7.74l-.41-.213-.817-.379-.155-.069-.493-.242a1.14 1.14 0 0 1 .146-.179 4.16 4.16 0 0 1 .307-.282c.584-.495.897-1 1.056-1.5.152-.48.152-.931.152-1.282v-.018c0-.64-.252-1.457-.788-2.12-.547-.677-1.397-1.2-2.565-1.2z"/><path d="M19.373 5.602a3.51 3.51 0 0 1 2.783-1.291c1.25 0 2.173.564 2.763 1.295.572.708.845 1.581.845 2.28v.027c0 .349 0 .833-.164 1.351-.174.55-.517 1.094-1.134 1.617l-.212.189.192.088.156.07.825.382c.709.351 1.59.864 2.145 1.613.828 1.117 1.335 2.586 1.335 3.649a.7.7 0 0 1-.699.7H15.98a.7.7 0 0 1-.7-.7 6.63 6.63 0 0 1 1.278-3.656c1.116-1.473 2.529-1.898 3.359-2.148l.209-.064a1.24 1.24 0 0 0-.101-.073c-.551-.364-.937-.81-1.174-1.352-.23-.523-.302-1.09-.304-1.674-.035-.726.251-1.603.825-2.303zm2.783-.781c-1.082 0-1.877.481-2.389 1.104-.504.613-.74 1.372-.71 1.96l.001.012c.001.548.069 1.04.26 1.476.195.443.511.816.989 1.132.256.169.424.371.479.533l.07.204-.19.102-.033.016c-.146.066-.341.125-.547.187l-.015.005c-.818.246-2.093.633-3.106 1.97a6.13 6.13 0 0 0-1.175 3.348.19.19 0 0 0 .19.19h12.225a.19.19 0 0 0 .19-.19c0-.936-.46-2.301-1.235-3.346-.478-.646-1.263-1.114-1.962-1.46l-.808-.374-.155-.069-.526-.26-.211-.135.132-.213a1.39 1.39 0 0 1 .179-.222 4.41 4.41 0 0 1 .326-.3c.551-.466.835-.932.978-1.383.139-.438.14-.852.14-1.205v-.018c0-.582-.232-1.342-.732-1.96-.504-.624-1.284-1.106-2.367-1.106zm0 .89c-.784 0-1.332.338-1.692.776-.379.462-.529 1.012-.509 1.36l.001.02v.02c0 .488.061.848.186 1.133.119.272.316.517.663.746s.699.58.838 1.007c.074.227.098.513-.025.8a1.18 1.18 0 0 1-.609.597 6.76 6.76 0 0 1-.821.291l-.009.003c-.808.248-1.68.518-2.495 1.594a4.89 4.89 0 0 0-.697 1.322c-.134.38.168.792.65.792h8.897a.7.7 0 0 0 .553-.255c.118-.15.156-.335.078-.536a5.84 5.84 0 0 0-.727-1.331c-.343-.463-.959-.854-1.639-1.19l-.769-.356-.163-.073c-.249-.112-.552-.248-.746-.395-.203-.154-.384-.381-.435-.687-.049-.293.04-.544.134-.72.174-.324.491-.608.734-.814.433-.367.616-.694.704-.973.095-.298.099-.589.099-.957 0-.38-.163-.944-.535-1.404-.353-.437-.885-.772-1.665-.772zm-2.085.453c.447-.545 1.135-.962 2.085-.962s1.622.417 2.062.961c.445.55.648 1.228.648 1.724 0 .361-.001.727-.123 1.111-.12.378-.361.784-.861 1.208-.248.21-.492.438-.615.666-.063.118-.104.253-.08.395a.58.58 0 0 0 .24.365c.137.104.38.217.647.337l.164.073.786.364c.69.341 1.402.776 1.822 1.344.333.449.599.955.792 1.448.149.38.067.759-.153 1.037a1.21 1.21 0 0 1-.952.448h-8.897c-.753 0-1.407-.687-1.13-1.471.168-.477.416-.991.772-1.461.916-1.209 1.922-1.518 2.748-1.772l.004-.001.768-.27c.166-.076.29-.188.353-.335s.055-.3.009-.441c-.09-.276-.336-.543-.634-.74-.421-.278-.686-.596-.849-.967s-.229-.813-.229-1.338v-.01c-.028-.488.172-1.162.624-1.713zM4.092 5.569c.599-.729 1.533-1.291 2.783-1.291s2.173.564 2.763 1.295c.572.708.845 1.581.845 2.28v.027c0 .349 0 .833-.164 1.351-.174.55-.517 1.094-1.134 1.617l-.212.189.192.088.156.07.824.382c.709.351 1.59.864 2.145 1.613.827 1.117 1.335 2.586 1.335 3.649a.7.7 0 0 1-.7.7H.699a.7.7 0 0 1-.699-.7 6.63 6.63 0 0 1 1.278-3.655c1.115-1.473 2.528-1.898 3.359-2.148l.209-.064-.101-.074c-.551-.364-.936-.81-1.174-1.352-.23-.523-.302-1.09-.304-1.674-.035-.726.251-1.603.825-2.303zm2.783-.781c-1.082 0-1.877.481-2.389 1.104-.504.613-.74 1.372-.71 1.96l.001.012c.001.548.069 1.04.26 1.476.195.443.511.816.989 1.132.256.169.424.371.479.533l.07.205-.19.102-.033.016c-.146.066-.341.125-.547.187l-.015.005c-.818.246-2.093.633-3.106 1.97C.755 14.718.509 16.217.509 16.839a.19.19 0 0 0 .19.19h12.225a.19.19 0 0 0 .19-.19c0-.936-.46-2.301-1.235-3.346-.478-.646-1.264-1.114-1.962-1.46l-.807-.374-.155-.069-.526-.26-.211-.135.132-.213c.04-.065.099-.139.179-.222a4.79 4.79 0 0 1 .326-.3c.551-.466.835-.932.978-1.383.139-.438.14-.852.14-1.205v-.018c0-.582-.232-1.342-.732-1.96-.504-.624-1.284-1.106-2.367-1.106zm0 .89c-.784 0-1.332.338-1.692.776-.379.462-.529 1.012-.509 1.36l.001.02v.02c0 .488.061.848.186 1.133.119.272.316.517.663.746s.699.58.838 1.007c.074.227.098.513-.025.8a1.18 1.18 0 0 1-.609.597c-.261.119-.543.206-.821.291l-.009.003c-.808.248-1.68.518-2.495 1.594-.318.419-.543.883-.697 1.322-.134.38.168.792.65.792h8.897a.7.7 0 0 0 .553-.255c.115-.146.156-.335.078-.535a5.84 5.84 0 0 0-.727-1.331c-.343-.463-.959-.854-1.639-1.19l-.769-.356-.163-.073c-.249-.112-.552-.248-.746-.395-.203-.154-.384-.381-.435-.687-.049-.293.04-.545.134-.72.174-.324.491-.608.734-.814.433-.367.616-.694.704-.973.094-.298.099-.589.099-.957 0-.38-.163-.944-.535-1.404-.353-.437-.885-.772-1.665-.772zm-2.086.453a2.61 2.61 0 0 1 2.086-.962c.951 0 1.622.417 2.062.961.445.55.648 1.228.648 1.724 0 .361-.001.727-.123 1.111-.12.378-.361.784-.861 1.208-.248.21-.492.438-.615.666-.063.118-.104.253-.08.395a.58.58 0 0 0 .24.365c.138.104.38.217.647.337l.164.073.786.364c.69.341 1.402.776 1.822 1.344a6.35 6.35 0 0 1 .792 1.448c.149.38.067.759-.153 1.037a1.21 1.21 0 0 1-.952.448H2.355c-.753 0-1.407-.687-1.13-1.471.168-.477.416-.991.772-1.461.916-1.209 1.922-1.518 2.748-1.772l.004-.001.768-.27c.166-.076.29-.188.353-.335s.055-.3.009-.441c-.09-.276-.336-.543-.634-.74-.421-.278-.686-.596-.849-.967s-.229-.813-.229-1.338v-.01c-.028-.488.172-1.162.624-1.713z"/><path d="M14.515.509c-1.082 0-1.877.481-2.389 1.104-.503.613-.74 1.372-.71 1.96l.001.012c.001.548.069 1.04.26 1.476.195.443.511.816.989 1.132.256.169.424.371.479.533l.07.204-.19.102-.033.016c-.146.067-.341.125-.547.187l-.015.005a8.43 8.43 0 0 0-1.224.447v.42c.413-.208.815-.331 1.174-.441l.009-.003.768-.27c.166-.076.29-.188.353-.335s.055-.3.009-.441c-.09-.276-.336-.543-.634-.74-.421-.278-.686-.596-.849-.967s-.229-.813-.229-1.338V3.57v-.005c-.028-.488.172-1.162.624-1.713.447-.545 1.135-.962 2.086-.962s1.622.417 2.061.961c.445.55.648 1.228.648 1.724 0 .361-.001.727-.123 1.111-.12.378-.361.784-.861 1.208-.248.21-.492.438-.615.666-.063.118-.104.253-.08.395a.58.58 0 0 0 .24.365c.137.104.38.217.647.337l.164.073.786.364.444.233v-.435l-.269-.137-.808-.374-.155-.069-.526-.26-.211-.135.132-.213c.04-.065.099-.139.179-.222a4.4 4.4 0 0 1 .326-.3c.551-.466.835-.932.978-1.383.139-.438.14-.852.14-1.205v-.018c0-.582-.232-1.342-.732-1.96C16.378.991 15.598.509 14.515.509zm-2.783.781C12.331.561 13.266 0 14.515 0s2.173.564 2.763 1.295c.572.708.845 1.581.845 2.28m0 0v.027c0 .349 0 .833-.164 1.351-.174.55-.517 1.094-1.134 1.617l-.212.189.191.088.156.07.824.382.42.218c.081.045.132.13.132.223v1.037c0 .202-.224.323-.393.214-.245-.158-.512-.305-.787-.44l-.769-.356-.163-.073c-.248-.112-.552-.249-.746-.395-.203-.154-.384-.381-.435-.687-.049-.293.04-.544.134-.72.174-.324.491-.608.734-.814.433-.367.616-.694.704-.973.094-.298.099-.589.099-.957 0-.38-.163-.944-.535-1.404-.353-.437-.885-.772-1.665-.772s-1.332.338-1.692.776c-.379.462-.529 1.012-.509 1.36l.001.02v.02c0 .488.061.848.186 1.133.12.272.316.517.663.746s.699.58.838 1.007c.074.227.098.513-.025.8s-.358.482-.609.597c-.261.119-.543.206-.821.291l-.009.003c-.477.147-.963.297-1.45.609-.17.108-.392-.013-.392-.215V7.531c0-.096.054-.184.139-.227.548-.278 1.061-.432 1.443-.547l.004-.001.203-.062a1.23 1.23 0 0 0-.101-.074c-.551-.364-.936-.81-1.174-1.352-.23-.523-.302-1.09-.304-1.674-.035-.726.251-1.603.825-2.303"/></svg>