<svg xmlns="http://www.w3.org/2000/svg" width="196" height="154" fill="none"  xmlns:v="https://vecta.io/nano"><circle cx="69.043" cy="67.555" r="55.102" transform="rotate(14.218 69.043 67.555)" stroke="#ff7e00"/><path d="M52.537 37.419l-.908 3.583-2.389-.605.385-1.52-4.628-1.173-.385 1.52-2.402-.609.908-3.583.271.069c.446.103.814-.058 1.105-.485.293-.436.567-1.079.821-1.929l.745-2.541 6.799 1.723-1.341 5.293 1.018.258zm-4.948-3.954c-.195.654-.378 1.17-.552 1.55s-.389.662-.648.847l2.551.647.822-3.244-1.968-.499-.206.699zm13.913 4.522a49.06 49.06 0 0 1-.202.627l-5.347-1.355a1.58 1.58 0 0 0 .401 1.04c.266.279.635.479 1.105.598.353.089.669.116.947.081a2.77 2.77 0 0 0 .911-.289l.999 1.755c-.916.615-2.062.748-3.437.4-.859-.218-1.574-.572-2.143-1.063s-.961-1.072-1.176-1.742a3.83 3.83 0 0 1-.031-2.102c.183-.724.519-1.327 1.007-1.81a3.8 3.8 0 0 1 1.796-.989c.698-.17 1.431-.157 2.2.038.733.186 1.359.508 1.878.967a3.46 3.46 0 0 1 1.078 1.674c.208.659.213 1.383.014 2.17zm-3.42-2.975c-.398-.101-.761-.073-1.09.085-.32.16-.565.425-.736.796l3.013.763c.026-.407-.068-.759-.282-1.053-.205-.293-.507-.489-.905-.59zm10.993 8.793l.98-3.868-2.701 2.738-1.099-.278-1.003-3.735-.994 3.922-2.321-.588L63.8 34.64l2.714.688 1.076 4.36 3.226-3.27 2.429.615-1.85 7.359-2.321-.588zm7.653 2.069c-.787-.2-1.456-.542-2.007-1.029s-.934-1.065-1.149-1.735c-.206-.669-.216-1.369-.031-2.102.183-.724.525-1.331 1.024-1.82.509-.487 1.115-.81 1.82-.969.716-.165 1.472-.147 2.268.055s1.47.546 2.02 1.032a3.66 3.66 0 0 1 1.139 1.718c.208.659.22 1.355.034 2.088s-.528 1.344-1.028 1.834a3.75 3.75 0 0 1-1.823.982c-.716.165-1.472.147-2.268-.055zm.519-2.049c.452.115.862.055 1.23-.179.37-.243.624-.641.764-1.193.138-.543.101-1.005-.111-1.386s-.544-.629-.996-.743a1.51 1.51 0 0 0-1.23.179c-.368.234-.62.623-.758 1.166-.14.552-.105 1.023.104 1.413.212.381.543.629.996.743zm-29.948 5.321l-2.361-.598-1.344 5.306-2.565-.65 1.344-5.306-2.375-.602.519-2.049 7.301 1.85-.519 2.049zm6.177-.746c.669.17 1.236.481 1.698.936.474.447.796 1.001.966 1.66.181.653.176 1.359-.017 2.119s-.525 1.388-.997 1.885a3.52 3.52 0 0 1-1.64 1c-.621.17-1.266.17-1.935.001-.86-.218-1.477-.649-1.853-1.293l-.832 3.284-2.578-.653 2.531-9.988 2.456.622-.186.733c.624-.449 1.42-.55 2.388-.305zm-1.949 5.413c.452.115.862.055 1.23-.179.37-.243.623-.636.761-1.179s.1-1.005-.111-1.386c-.209-.39-.54-.642-.992-.757s-.864-.05-1.233.193c-.367.234-.62.623-.758 1.166s-.102 1.009.108 1.399c.212.381.544.629.996.743zm13.282 1.517a48.48 48.48 0 0 1-.202.627l-5.347-1.355c.012.407.146.754.401 1.04.266.279.635.478 1.105.598.353.089.669.116.947.081.288-.033.591-.129.911-.289l.999 1.755c-.916.615-2.062.748-3.437.4-.86-.218-1.574-.572-2.143-1.063s-.961-1.071-1.176-1.742a3.83 3.83 0 0 1-.031-2.102c.183-.724.519-1.327 1.007-1.81a3.8 3.8 0 0 1 1.796-.989c.698-.17 1.431-.157 2.2.038.733.186 1.359.508 1.878.967a3.46 3.46 0 0 1 1.078 1.674c.208.659.213 1.383.013 2.17zm-3.42-2.975c-.398-.101-.761-.073-1.09.085-.32.16-.565.425-.736.796l3.013.763c.026-.407-.068-.758-.282-1.053-.205-.293-.507-.489-.905-.59zm5.718-.371l2.565.65-.691 2.728 2.646.67.691-2.728 2.579.653-1.864 7.356-2.578-.653.653-2.578-2.646-.671-.653 2.578-2.565-.65 1.864-7.356zm9.529 2.414l2.565.65-.977 3.854 4.057-3.074 2.375.602-1.864 7.356-2.579-.653.98-3.868-4.034 3.094-2.388-.605 1.864-7.356zm9.754 2.471l2.565.65-.691 2.728 2.646.67.691-2.728 2.579.653-1.864 7.356-2.579-.653.653-2.578-2.646-.671-.653 2.578-2.565-.65 1.864-7.355zm15.171 6.025l-3.596-.911-1.345 5.306-2.565-.65 1.864-7.356 6.161 1.561-.519 2.049zm-49.41 11.38l1.47-5.503-17.591-4.7-5.782 21.641 7.296 1.95 1.85-6.925 9.027 2.412 1.47-5.503-9.027-2.412.991-3.71 10.295 2.751zm10.947 20.215l7.791 2.082-2.76-7.892c2.952-.636 5.064-2.589 5.898-5.711 1.338-5.008-1.653-9.186-7.681-10.797l-10.418-2.784-5.782 21.641 7.296 1.95 1.454-5.441 1.979.529L63.1 94.49zm3.571-13.487c-.421 1.577-1.636 2.279-3.645 1.742l-2.659-.71 1.355-5.07 2.659.71c2.01.537 2.712 1.751 2.29 3.328zm15.154 12.595l.76-2.844 9.151 2.445 1.404-5.256-9.151-2.445.677-2.535 10.418 2.784 1.47-5.503-17.591-4.7-5.782 21.641 17.993 4.808 1.47-5.503-10.82-2.891zm20.802 5.558l.76-2.844 9.151 2.445 1.404-5.256-9.151-2.445.677-2.535 10.419 2.784 1.47-5.503-17.591-4.7-5.782 21.641 17.993 4.808 1.47-5.503-10.82-2.892z" fill="#ff7e00"/></svg>