    <svg xmlns="http://www.w3.org/2000/svg" width="29" height="30" fill="none"  xmlns:v="https://vecta.io/nano"><path d="M14.496 7.626c-4.117 0-7.44 3.282-7.44 7.349s3.323 7.349 7.44 7.349 7.44-3.282 7.44-7.349-3.323-7.349-7.44-7.349zm0 12.125c-2.662 0-4.835-2.146-4.835-4.776s2.173-4.776 4.835-4.776 4.835 2.146 4.835 4.776-2.173 4.776-4.835 4.776zm7.745-14.139c-.961 0-1.738.767-1.738 1.716s.776 1.716 1.738 1.716 1.738-.763 1.738-1.716c0-.225-.045-.449-.132-.657s-.215-.398-.377-.557-.353-.286-.564-.372-.437-.13-.665-.13zm6.758 9.362c0-1.978.018-3.938-.094-5.912-.113-2.293-.642-4.328-2.34-6.005S22.806.858 20.485.747C18.483.635 16.498.653 14.5.653S10.513.635 8.515.747c-2.322.111-4.382.634-6.079 2.311S.208 6.77.095 9.063C-.017 11.041.001 13 .001 14.975s-.018 3.938.094 5.912c.112 2.293.642 4.328 2.34 6.005s3.758 2.2 6.079 2.311c2.002.111 3.986.093 5.985.093s3.986.018 5.985-.093c2.322-.111 4.382-.634 6.079-2.311s2.227-3.712 2.34-6.005c.116-1.974.094-3.934.094-5.912zm-3.192 8.449c-.265.652-.584 1.139-1.096 1.641s-1.001.82-1.661 1.082c-1.908.749-6.439.58-8.553.58s-6.649.168-8.557-.577c-.66-.262-1.154-.577-1.661-1.082a4.58 4.58 0 0 1-1.095-1.641c-.754-1.888-.584-6.363-.584-8.452s-.17-6.568.584-8.452c.265-.652.584-1.139 1.095-1.641s1.001-.82 1.661-1.082c1.908-.745 6.442-.577 8.557-.577s6.649-.168 8.557.577c.66.262 1.154.577 1.661 1.082a4.58 4.58 0 0 1 1.095 1.641c.755 1.885.584 6.363.584 8.452s.171 6.564-.588 8.449z" fill="#7b7b7b"/></svg>