<svg width="148" height="113" viewBox="0 0 148 113" fill="none" xmlns="http://www.w3.org/2000/svg">
<path d="M50.8 49.3L48.8783 48.7459L48.4035 50.3924L49.9578 51.114L50.8 49.3ZM63.7 61L61.9676 61.9994L61.9906 62.0393L62.0155 62.0781L63.7 61ZM58.9 103L60.2916 104.436L58.9 103ZM9.7 103L8.30841 104.436L8.30841 104.436L9.7 103ZM1.9 64.9L-0.0352346 64.3952L-0.0352346 64.3952L1.9 64.9ZM10 44.5L11.8124 45.3458L11.8234 45.3222L11.8337 45.2984L10 44.5ZM29.2 0.399987V-1.60001H27.8894L27.3663 -0.398377L29.2 0.399987ZM64.9 0.399987L66.8217 0.954099L67.5582 -1.60001H64.9V0.399987ZM129.4 49.3L127.478 48.7459L127.004 50.3924L128.558 51.114L129.4 49.3ZM142.3 61L140.568 61.9994L140.591 62.0393L140.615 62.0781L142.3 61ZM137.5 103L138.892 104.436L138.892 104.436L137.5 103ZM88.3 103L86.9084 104.436L86.9084 104.436L88.3 103ZM88.6 44.5L90.4124 45.3458L90.4234 45.3222L90.4338 45.2984L88.6 44.5ZM107.8 0.399987V-1.60001H106.489L105.966 -0.398377L107.8 0.399987ZM143.5 0.399987L145.422 0.954099L146.158 -1.60001H143.5V0.399987ZM49.9578 51.114C55.1956 53.5459 59.1796 57.1668 61.9676 61.9994L65.4324 60.0005C62.2204 54.4332 57.6044 50.2541 51.6422 47.486L49.9578 51.114ZM62.0155 62.0781C64.9808 66.7114 66.5 72.2251 66.5 78.7H70.5C70.5 71.5748 68.8192 65.2886 65.3845 59.9219L62.0155 62.0781ZM66.5 78.7C66.5 88.2312 63.4703 95.788 57.5084 101.564L60.2916 104.436C67.1298 97.812 70.5 89.1688 70.5 78.7H66.5ZM57.5084 101.564C51.5283 107.357 43.8496 110.3 34.3 110.3V114.3C44.7504 114.3 53.4717 111.043 60.2916 104.436L57.5084 101.564ZM34.3 110.3C24.7504 110.3 17.0717 107.357 11.0916 101.564L8.30841 104.436C15.1283 111.043 23.8496 114.3 34.3 114.3V110.3ZM11.0916 101.564C5.12975 95.788 2.1 88.2312 2.1 78.7H-1.9C-1.9 89.1688 1.47025 97.812 8.30841 104.436L11.0916 101.564ZM2.1 78.7C2.1 74.276 2.67679 69.8455 3.83523 65.4048L-0.0352346 64.3952C-1.27679 69.1545 -1.9 73.924 -1.9 78.7H2.1ZM3.83523 65.4048C4.98683 60.9904 7.62086 54.3276 11.8124 45.3458L8.18763 43.6542C3.97914 52.6724 1.21317 59.6096 -0.0352346 64.3952L3.83523 65.4048ZM11.8337 45.2984L31.0337 1.19835L27.3663 -0.398377L8.16626 43.7016L11.8337 45.2984ZM29.2 2.39999H64.9V-1.60001H29.2V2.39999ZM62.9783 -0.154125L48.8783 48.7459L52.7217 49.8541L66.8217 0.954099L62.9783 -0.154125ZM128.558 51.114C133.796 53.5459 137.78 57.1668 140.568 61.9994L144.032 60.0005C140.82 54.4332 136.204 50.2541 130.242 47.486L128.558 51.114ZM140.615 62.0781C143.581 66.7114 145.1 72.2251 145.1 78.7H149.1C149.1 71.5749 147.419 65.2886 143.985 59.9219L140.615 62.0781ZM145.1 78.7C145.1 88.2312 142.07 95.788 136.108 101.564L138.892 104.436C145.73 97.812 149.1 89.1688 149.1 78.7H145.1ZM136.108 101.564C130.128 107.357 122.45 110.3 112.9 110.3V114.3C123.35 114.3 132.072 111.043 138.892 104.436L136.108 101.564ZM112.9 110.3C103.35 110.3 95.6717 107.357 89.6916 101.564L86.9084 104.436C93.7283 111.043 102.45 114.3 112.9 114.3V110.3ZM89.6916 101.564C83.7297 95.788 80.7 88.2312 80.7 78.7H76.7C76.7 89.1688 80.0703 97.812 86.9084 104.436L89.6916 101.564ZM80.7 78.7C80.7 74.276 81.2768 69.8455 82.4352 65.4048L78.5648 64.3952C77.3232 69.1545 76.7 73.924 76.7 78.7H80.7ZM82.4352 65.4048C83.5868 60.9904 86.2209 54.3276 90.4124 45.3458L86.7876 43.6542C82.5792 52.6724 79.8132 59.6096 78.5648 64.3952L82.4352 65.4048ZM90.4338 45.2984L109.634 1.19835L105.966 -0.398377L86.7663 43.7016L90.4338 45.2984ZM107.8 2.39999H143.5V-1.60001H107.8V2.39999ZM141.578 -0.154125L127.478 48.7459L131.322 49.8541L145.422 0.954099L141.578 -0.154125Z" fill="#FF7E00"/>
</svg>
