<svg xmlns="http://www.w3.org/2000/svg" width="31" height="15" fill="none"  xmlns:v="https://vecta.io/nano"><path fill-rule="evenodd" d="M23.925.764c0-.422.342-.764.764-.764h4.858a1 1 0 0 1 1 1v4.348c0 .422-.342.764-.764.764s-.764-.342-.764-.764V2.767a.1.1 0 0 0-.166-.075l-9.62 8.411c-.692.582-1.71.554-2.368-.065l-5.242-4.926c-.095-.089-.24-.092-.339-.009L1.571 14.35c-.322.273-.804.234-1.077-.088s-.234-.804.088-1.077l9.713-8.247c.691-.587 1.714-.561 2.375.06l5.242 4.926c.094.088.239.092.338.009l9.546-8.23a.1.1 0 0 0-.065-.176h-3.043c-.422 0-.764-.342-.764-.764z" fill="#ff7e00"/></svg>