<svg width="27" height="28" viewBox="0 0 27 28" fill="none" xmlns="http://www.w3.org/2000/svg">
<path fill-rule="evenodd" clip-rule="evenodd" d="M11.1979 2.98176C13.4528 1.60515 16.2634 1.21034 18.4339 1.70331C22.1733 2.55262 24.5574 5.22821 24.9559 9.19967C25.353 13.158 23.7628 15.6496 22.5007 16.5C22.2714 16.6545 22.121 16.9014 22.089 17.1759L21.7424 20.1429C21.7242 20.2987 21.5421 20.3739 21.4193 20.2763L18.9598 18.3209C18.8041 18.1972 18.5991 18.1544 18.4069 18.2056C16.621 18.6816 13.808 18.4648 11.4548 17.1812C9.14978 15.924 7.30968 13.6623 7.30968 9.99427C7.30968 6.63395 8.97489 4.33884 11.1979 2.98176ZM10.4163 1.70147C7.80093 3.29809 5.80968 6.05101 5.80968 9.99427C5.80968 14.2775 8.0108 17.0114 10.7365 18.4981C13.1115 19.7935 15.9033 20.1566 18.0198 19.818C18.3124 19.7712 18.6144 19.8361 18.8488 20.0176L22.0232 22.4754C22.3259 22.7098 22.769 22.5309 22.8241 22.152L23.4437 17.8924C23.4803 17.6403 23.6142 17.4144 23.8025 17.2429C25.3293 15.852 26.8518 13.0713 26.4484 9.04993C25.9867 4.44838 23.1455 1.23522 18.7662 0.240565C16.2092 -0.340183 12.9997 0.124376 10.4163 1.70147ZM1.50932 14.9355C1.59216 13.0445 2.41081 11.3543 3.27449 10.2091C3.5239 9.8784 3.50623 9.40511 3.20127 9.1248C2.89631 8.84449 2.42001 8.86291 2.16484 9.18919C1.12278 10.5217 0.11227 12.5089 0.0107555 14.8262C-0.101686 17.3929 0.69713 20.0682 3.96506 22.766C4.1804 22.9438 4.31912 23.1992 4.34125 23.4776L4.63317 27.1508C4.66341 27.5313 5.0917 27.739 5.40919 27.5271L8.79555 25.2666C9.00105 25.1295 9.24971 25.075 9.49534 25.1016C10.4711 25.2074 11.7716 25.2209 13.1224 24.9949C14.596 24.7484 16.1917 24.2058 17.481 23.1261C17.7986 22.8602 17.7861 22.3819 17.4869 22.0955C17.1877 21.809 16.7152 21.8237 16.3898 22.08C15.3933 22.8647 14.1387 23.304 12.8749 23.5155C11.3662 23.7679 9.92591 23.6811 9.08578 23.5295C8.90129 23.4962 8.71121 23.5395 8.55931 23.6493L6.29519 25.287C6.16746 25.3794 5.98803 25.2945 5.97835 25.1372L5.82947 22.7154C5.81492 22.4787 5.69756 22.2602 5.50825 22.1174C2.29445 19.6926 1.41356 17.1212 1.50932 14.9355Z" fill="#FF7E00"/>
</svg>
