<svg width="29" height="29" viewBox="0 0 29 29" fill="none" xmlns="http://www.w3.org/2000/svg">
<g clip-path="url(#clip0)">
<path d="M13.5355 0.0754361C11.2484 0.103046 6.33125 0.478889 3.581 3.00203C1.53523 5.02909 0.820952 8.02605 0.737234 11.7319C0.667765 15.4245 0.584046 22.3589 7.26819 24.247V27.1228C7.26819 27.1228 7.22633 28.2735 7.98692 28.5095C8.92386 28.8061 9.45734 27.9208 10.348 26.9696L12.009 25.0913C16.5823 25.4716 20.0852 24.5952 20.4886 24.4652C21.4167 24.1686 26.6437 23.5007 27.4978 16.5654C28.3742 9.40295 27.0712 4.89015 24.7191 2.84884H24.7048C23.995 2.19512 21.1423 0.116405 14.769 0.0932486C14.769 0.0932486 14.2961 0.0611861 13.5355 0.0745455V0.0754361ZM13.6139 2.08914C14.2632 2.08469 14.6577 2.1123 14.6577 2.1123C20.0522 2.12655 22.627 3.75015 23.2344 4.297C25.2152 5.99453 26.2358 10.0629 25.4886 16.0426C24.7788 21.8405 20.5394 22.2075 19.7547 22.4577C19.4208 22.5646 16.3356 23.3252 12.449 23.0749C12.449 23.0749 9.55442 26.568 8.64955 27.4675C8.50615 27.6251 8.33872 27.6715 8.23184 27.6483C8.07865 27.6109 8.03234 27.4212 8.04125 27.1611L8.06886 22.3883C2.40003 20.8208 2.73401 14.9061 2.79458 11.8165C2.86405 8.72697 3.44384 6.19937 5.16987 4.48759C7.49351 2.38661 11.6688 2.10339 13.6121 2.08914H13.6139ZM14.0414 5.17783C13.9947 5.17736 13.9484 5.18613 13.9052 5.20363C13.8619 5.22113 13.8226 5.24702 13.7894 5.27981C13.7562 5.31259 13.7298 5.35162 13.7118 5.39465C13.6937 5.43768 13.6844 5.48386 13.6842 5.53051C13.6842 5.73001 13.8463 5.88765 14.0414 5.88765C14.9244 5.87086 15.8021 6.02906 16.6237 6.35312C17.4453 6.67718 18.1947 7.1607 18.8285 7.77578C20.1226 9.03245 20.7531 10.7211 20.7772 12.9289C20.7772 13.124 20.9348 13.2861 21.1343 13.2861V13.2718C21.2283 13.2721 21.3187 13.2351 21.3856 13.1691C21.4525 13.103 21.4905 13.0132 21.4915 12.9191C21.5347 11.8799 21.3662 10.8427 20.9961 9.87068C20.6261 8.89861 20.0622 8.01194 19.3388 7.26456C17.929 5.88676 16.1424 5.17694 14.0414 5.17694V5.17783ZM9.3469 5.99453C9.09481 5.9577 8.8377 6.0083 8.61837 6.13792H8.59967C8.09047 6.4364 7.63175 6.81366 7.24058 7.25566C6.9155 7.6315 6.73915 8.0118 6.69284 8.37784C6.66523 8.59605 6.68394 8.81425 6.74895 9.02265L6.77211 9.03691C7.13815 10.1128 7.61642 11.1477 8.20067 12.122C8.95327 13.4909 9.87946 14.7568 10.9563 15.8885L10.9883 15.9348L11.0391 15.9722L11.0712 16.0096L11.1086 16.0417C12.2443 17.1216 13.5133 18.0521 14.8848 18.8106C16.4523 19.6638 17.4035 20.0673 17.9744 20.2347V20.2436C18.1418 20.2944 18.2941 20.3176 18.4473 20.3176C18.9338 20.2819 19.3944 20.0844 19.7556 19.7565C20.1956 19.3652 20.5687 18.9046 20.86 18.3929V18.384C21.1334 17.8692 21.0408 17.3821 20.6463 17.0525C19.8561 16.3618 19.0017 15.7484 18.0946 15.2205C17.4872 14.891 16.87 15.0905 16.6197 15.4245L16.0863 16.0969C15.8128 16.4309 15.3159 16.3846 15.3159 16.3846L15.3016 16.3935C11.5957 15.4467 10.6071 11.6945 10.6071 11.6945C10.6071 11.6945 10.5608 11.1842 10.9037 10.9241L11.5717 10.3862C11.8914 10.1261 12.1141 9.50983 11.7712 8.90153C11.247 7.99323 10.6348 7.13858 9.94362 6.34989C9.79251 6.16395 9.58051 6.03745 9.34512 5.99275L9.3469 5.99453ZM14.6577 7.05259C14.1848 7.05259 14.1848 7.76687 14.6622 7.76687C15.2502 7.77641 15.8306 7.90175 16.3702 8.13571C16.9098 8.36968 17.398 8.70769 17.8069 9.13042C18.18 9.5419 18.4666 10.0241 18.6499 10.5483C18.8332 11.0726 18.9093 11.6283 18.8739 12.1826C18.8755 12.2764 18.9138 12.3658 18.9806 12.4317C19.0473 12.4977 19.1372 12.5348 19.2311 12.5353L19.2453 12.554C19.3398 12.5533 19.4302 12.5154 19.4971 12.4486C19.5639 12.3818 19.6017 12.2913 19.6024 12.1968C19.6345 10.7816 19.1945 9.59444 18.3315 8.64325C17.4641 7.69206 16.2537 7.15858 14.7085 7.05259H14.6577ZM15.2428 8.97278C14.7557 8.95853 14.737 9.68706 15.2197 9.70131C16.3935 9.76187 16.9635 10.355 17.0383 11.5752C17.04 11.6678 17.0778 11.7561 17.1437 11.8212C17.2096 11.8863 17.2984 11.923 17.391 11.9234H17.4053C17.4529 11.9214 17.4996 11.9099 17.5428 11.8896C17.5859 11.8693 17.6245 11.8406 17.6565 11.8052C17.6884 11.7698 17.7129 11.7284 17.7287 11.6834C17.7444 11.6384 17.7511 11.5907 17.7482 11.5431C17.6644 9.95247 16.797 9.0565 15.2571 8.97367H15.2428V8.97278Z" fill="#FF7E00"/>
</g>
<defs>
<clipPath id="clip0">
<rect width="28.5" height="28.5" fill="white" transform="translate(0 0.0712891)"/>
</clipPath>
</defs>
</svg>
