<svg xmlns="http://www.w3.org/2000/svg" width="34" height="34" fill="none"  xmlns:v="https://vecta.io/nano"><path fill-rule="evenodd" d="M26.016 7.964a12.61 12.61 0 0 0-8.977-3.722c-6.995 0-12.689 5.693-12.692 12.691a12.69 12.69 0 0 0 1.694 6.345l-1.8 6.575 6.728-1.766c1.861 1.013 3.946 1.544 6.065 1.545h.006c6.993 0 12.688-5.693 12.691-12.691a12.62 12.62 0 0 0-.958-4.86c-.637-1.541-1.574-2.94-2.755-4.117zm-8.977 19.526h-.004c-1.889 0-3.744-.508-5.369-1.472l-.385-.229-3.992 1.048 1.065-3.892-.25-.399a10.53 10.53 0 0 1-1.613-5.614c.003-5.816 4.734-10.548 10.553-10.548a10.48 10.48 0 0 1 7.457 3.093 10.49 10.49 0 0 1 3.086 7.463c-.003 5.816-4.735 10.549-10.548 10.549zm5.786-7.901c-.318-.16-1.876-.926-2.167-1.032s-.5-.158-.713.158-.82 1.031-1.005 1.243-.37.238-.687.079-1.339-.493-2.55-1.573c-.943-.841-1.579-1.879-1.764-2.197s-.02-.489.14-.648c.143-.141.317-.37.475-.556s.211-.317.317-.529.054-.397-.027-.556-.714-1.72-.978-2.355c-.256-.615-.517-.533-.713-.541a13.63 13.63 0 0 0-.607-.011 1.17 1.17 0 0 0-.847.396c-.291.318-1.11 1.084-1.11 2.645s1.137 3.069 1.295 3.281 2.236 3.414 5.417 4.788c.758.326 1.349.522 1.808.669.759.242 1.45.206 1.998.126.609-.09 1.876-.766 2.14-1.507s.264-1.375.185-1.508-.293-.213-.608-.372z" fill="#ff7e00"/></svg>